# Blender v2.92.0 OBJ File: ''
# www.blender.org
mtllib table.mtl
o Stütze
v 50.000000 25.000013 -84.908836
v 50.000000 35.000015 -84.908836
v -50.000000 35.000015 -84.908836
v -50.000000 25.000013 -84.908836
v 50.000000 25.000015 -94.908836
v 50.000000 35.000015 -94.908836
v -50.000000 25.000015 -94.908836
v -50.000000 35.000015 -94.908836
vn 0.0000 0.0000 1.0000
vn 1.0000 0.0000 0.0000
vn 0.0000 0.0000 -1.0000
vn -1.0000 0.0000 0.0000
vn 0.0000 1.0000 0.0000
vn 0.0000 -1.0000 -0.0000
usemtl Mat.1
s 1
f 2//1 4//1 1//1
f 6//2 1//2 5//2
f 8//3 5//3 7//3
f 3//4 7//4 4//4
f 6//5 3//5 2//5
f 1//6 7//6 5//6
f 2//1 3//1 4//1
f 6//2 2//2 1//2
f 8//3 6//3 5//3
f 3//4 8//4 7//4
f 6//5 8//5 3//5
f 1//6 4//6 7//6
o Stütze_1
v 50.000000 24.999985 94.414047
v 50.000000 34.999985 94.414047
v -50.000000 34.999985 94.414047
v -50.000000 24.999985 94.414047
v 50.000000 24.999987 84.414047
v 50.000000 34.999985 84.414047
v -50.000000 24.999987 84.414047
v -50.000000 34.999985 84.414047
vn 0.0000 0.0000 1.0000
vn 1.0000 0.0000 0.0000
vn 0.0000 0.0000 -1.0000
vn -1.0000 0.0000 0.0000
vn 0.0000 1.0000 0.0000
vn 0.0000 -1.0000 -0.0000
usemtl Mat.1
s 1
f 10//7 12//7 9//7
f 14//8 9//8 13//8
f 16//9 13//9 15//9
f 11//10 15//10 12//10
f 14//11 11//11 10//11
f 9//12 15//12 13//12
f 10//7 11//7 12//7
f 14//8 10//8 9//8
f 16//9 14//9 13//9
f 11//10 16//10 15//10
f 14//11 16//11 11//11
f 9//12 12//12 15//12
o Stütze_2
v 5.000000 24.999985 90.000008
v 5.000000 34.999985 90.000008
v -5.000000 34.999985 90.000008
v -5.000000 24.999985 90.000008
v 5.000000 25.000015 -89.999992
v 5.000000 35.000015 -89.999992
v -5.000000 25.000015 -89.999992
v -5.000000 35.000015 -89.999992
vn 0.0000 0.0000 1.0000
vn 1.0000 0.0000 0.0000
vn 0.0000 0.0000 -1.0000
vn -1.0000 0.0000 0.0000
vn 0.0000 1.0000 0.0000
vn 0.0000 -1.0000 -0.0000
usemtl Mat.1
s 1
f 18//13 20//13 17//13
f 22//14 17//14 21//14
f 24//15 21//15 23//15
f 19//16 23//16 20//16
f 18//13 19//13 20//13
f 22//14 18//14 17//14
f 24//15 22//15 21//15
f 19//16 24//16 23//16
usemtl Mat
f 22//17 19//17 18//17
f 17//18 23//18 21//18
f 22//17 24//17 19//17
f 17//18 20//18 23//18
o Platte
v 70.000000 47.517567 110.000008
v 70.000000 52.517567 110.000008
v -70.000000 52.517567 110.000008
v -70.000000 47.517567 110.000008
v -70.000000 47.517605 -109.999992
v -70.000000 52.517605 -109.999992
v 70.000000 52.517605 -109.999992
v 70.000000 47.517605 -109.999992
vn 0.0000 0.0000 1.0000
vn 0.0000 0.0000 -1.0000
vn 0.0000 1.0000 0.0000
vn 0.0000 -1.0000 -0.0000
vn 1.0000 0.0000 0.0000
vn -1.0000 0.0000 0.0000
usemtl Mat
s 1
f 26//19 28//19 25//19
f 30//20 32//20 29//20
f 31//21 27//21 26//21
f 25//22 29//22 32//22
f 26//19 27//19 28//19
f 30//20 31//20 32//20
f 31//21 30//21 27//21
f 25//22 28//22 29//22
usemtl Mat.1
f 31//23 25//23 32//23
f 27//24 29//24 28//24
f 31//23 26//23 25//23
f 27//24 30//24 29//24
o Bein
v -50.000000 -50.000015 94.999992
v -50.000000 49.999985 95.000008
v -60.000000 49.999985 95.000008
v -60.000000 -50.000015 94.999992
v -50.000000 -50.000015 84.999992
v -50.000000 49.999985 85.000008
v -60.000000 -50.000015 84.999992
v -60.000000 49.999985 85.000008
vn 0.0000 -0.0000 1.0000
vn 1.0000 0.0000 0.0000
vn 0.0000 0.0000 -1.0000
vn -1.0000 0.0000 0.0000
vn 0.0000 1.0000 0.0000
vn 0.0000 -1.0000 0.0000
usemtl Mat
s 1
f 34//25 36//25 33//25
f 38//26 33//26 37//26
f 40//27 37//27 39//27
f 35//28 39//28 36//28
f 38//29 35//29 34//29
f 33//30 39//30 37//30
f 34//25 35//25 36//25
f 38//26 34//26 33//26
f 40//27 38//27 37//27
f 35//28 40//28 39//28
f 38//29 40//29 35//29
f 33//30 36//30 39//30
o Bein_1
v 60.000000 -50.000015 94.999992
v 60.000000 49.999985 95.000008
v 50.000000 49.999985 95.000008
v 50.000000 -50.000015 94.999992
v 60.000000 -50.000015 84.999992
v 60.000000 49.999985 85.000008
v 50.000000 -50.000015 84.999992
v 50.000000 49.999985 85.000008
vn 0.0000 -0.0000 1.0000
vn 1.0000 0.0000 0.0000
vn 0.0000 0.0000 -1.0000
vn -1.0000 0.0000 0.0000
vn 0.0000 1.0000 0.0000
vn 0.0000 -1.0000 0.0000
usemtl Mat
s 1
f 42//31 44//31 41//31
f 46//32 41//32 45//32
f 48//33 45//33 47//33
f 43//34 47//34 44//34
f 46//35 43//35 42//35
f 41//36 47//36 45//36
f 42//31 43//31 44//31
f 46//32 42//32 41//32
f 48//33 46//33 45//33
f 43//34 48//34 47//34
f 46//35 48//35 43//35
f 41//36 44//36 47//36
o Bein_2
v -50.000000 -49.999985 -85.000008
v -50.000000 50.000015 -84.999992
v -60.000000 50.000015 -84.999992
v -60.000000 -49.999985 -85.000008
v -50.000000 -49.999985 -95.000008
v -50.000000 50.000015 -94.999992
v -60.000000 -49.999985 -95.000008
v -60.000000 50.000015 -94.999992
vn 0.0000 -0.0000 1.0000
vn 1.0000 0.0000 0.0000
vn 0.0000 0.0000 -1.0000
vn -1.0000 0.0000 0.0000
vn 0.0000 1.0000 0.0000
vn 0.0000 -1.0000 0.0000
usemtl Mat
s 1
f 50//37 52//37 49//37
f 54//38 49//38 53//38
f 56//39 53//39 55//39
f 51//40 55//40 52//40
f 54//41 51//41 50//41
f 49//42 55//42 53//42
f 50//37 51//37 52//37
f 54//38 50//38 49//38
f 56//39 54//39 53//39
f 51//40 56//40 55//40
f 54//41 56//41 51//41
f 49//42 52//42 55//42
o Bein_3
v 60.000000 -49.999985 -85.000008
v 60.000000 50.000015 -84.999992
v 50.000000 50.000015 -84.999992
v 50.000000 -49.999985 -85.000008
v 60.000000 -49.999985 -95.000008
v 60.000000 50.000015 -94.999992
v 50.000000 -49.999985 -95.000008
v 50.000000 50.000015 -94.999992
vn 0.0000 -0.0000 1.0000
vn 1.0000 0.0000 0.0000
vn 0.0000 0.0000 -1.0000
vn -1.0000 0.0000 0.0000
vn 0.0000 1.0000 0.0000
vn 0.0000 -1.0000 0.0000
usemtl Mat
s 1
f 58//43 60//43 57//43
f 62//44 57//44 61//44
f 64//45 61//45 63//45
f 59//46 63//46 60//46
f 62//47 59//47 58//47
f 57//48 63//48 61//48
f 58//43 59//43 60//43
f 62//44 58//44 57//44
f 64//45 62//45 61//45
f 59//46 64//46 63//46
f 62//47 64//47 59//47
f 57//48 60//48 63//48
